<?xml version="1.0" encoding="UTF-8" standalone="no"?>
<!DOCTYPE svg PUBLIC "-//W3C//DTD SVG 20010904//EN" "http://www.w3.org/TR/2001/REC-SVG-20010904/DTD/svg10.dtd">

<svg xmlns="http://www.w3.org/2000/svg" viewBox="0 0 142 137">
  <path id="leaves" fill="currentColor"
        d="M 89.00,1.00
           C 92.83,2.08 93.66,3.02 97.00,4.76
             99.75,6.18 101.32,6.55 104.00,8.56
             109.27,12.51 116.06,22.50 117.48,29.00
             118.19,32.22 118.00,36.63 118.00,40.00
             118.00,40.00 141.00,22.00 141.00,22.00
             141.00,22.00 142.00,23.00 142.00,23.00
             138.86,29.58 130.64,34.18 124.91,39.01
             123.03,40.61 119.09,43.42 118.76,45.97
             118.06,51.41 127.26,49.81 132.01,57.04
             136.96,64.58 138.17,80.21 137.00,89.00
             130.51,85.52 130.55,83.98 125.72,79.32
             122.44,76.17 117.39,72.43 114.72,68.72
             110.65,63.05 110.19,54.46 112.00,48.00
             109.61,49.42 99.03,54.14 98.61,56.27
             98.22,58.21 101.21,62.18 102.21,64.00
             104.92,68.96 107.23,74.22 106.82,80.00
             106.26,87.92 104.65,96.72 101.38,104.00
             98.46,110.51 96.15,109.92 94.00,119.00
             89.63,116.11 89.99,109.61 88.14,105.00
             86.02,99.72 82.25,92.47 81.50,87.00
             80.94,82.88 83.60,70.68 85.57,67.00
             86.75,64.78 88.39,62.91 90.00,61.00
             90.00,61.00 73.00,69.00 73.00,69.00
             73.00,69.00 78.45,80.00 78.45,80.00
             81.32,87.92 80.36,89.84 81.18,97.00
             81.66,101.19 82.38,101.05 82.19,106.00
             81.76,117.38 81.75,127.23 73.00,136.00
             73.00,136.00 68.02,123.00 68.02,123.00
             64.15,114.98 57.49,105.24 58.05,96.00
             58.40,90.39 61.43,82.02 64.00,77.00
             56.09,86.74 58.83,90.44 52.40,100.00
             38.31,120.98 24.69,124.08 1.00,126.00
             1.00,126.00 1.63,117.99 1.63,117.99
             5.51,101.91 18.84,89.53 34.00,84.09
             34.00,84.09 57.96,77.69 57.96,77.69
             59.94,76.60 60.60,75.63 62.00,74.00
             55.27,77.40 50.42,73.93 44.00,71.46
             36.68,68.65 30.90,66.54 25.79,59.91
             22.34,55.45 21.33,50.70 18.87,47.09
             16.17,43.14 14.40,43.00 12.00,38.00
             19.44,39.33 19.80,38.92 27.00,39.00
             35.39,39.10 34.96,40.12 42.00,43.26
             42.00,43.26 50.00,46.41 50.00,46.41
             52.66,47.85 54.63,49.68 57.00,51.50
             64.02,56.90 68.36,58.96 71.00,68.00
             71.00,68.00 88.00,59.00 88.00,59.00
             80.61,58.84 72.76,56.67 67.22,51.48
             64.68,49.11 63.93,46.66 61.73,44.01
             61.73,44.01 53.85,35.91 53.85,35.91
             52.28,33.50 51.94,30.58 50.74,28.00
             47.71,21.48 44.89,21.34 44.00,13.00
             47.97,13.54 56.55,15.25 60.00,16.89
             60.00,16.89 70.00,23.59 70.00,23.59
             70.00,23.59 80.00,27.84 80.00,27.84
             82.13,29.16 84.12,31.13 85.96,32.84
             93.97,40.28 94.99,42.36 95.00,53.00
             95.00,53.00 112.00,45.00 112.00,45.00
             109.68,44.98 107.21,45.08 105.00,44.27
             96.73,41.20 91.05,29.28 90.13,21.00
             89.21,12.82 92.19,13.64 89.00,1.00 Z
           M 66.00,75.00
           C 66.00,75.00 65.00,75.00 65.00,75.00
             65.00,75.00 66.00,76.00 66.00,76.00
             66.00,76.00 66.00,75.00 66.00,75.00 Z
           M 65.00,76.00
           C 65.00,76.00 64.00,76.00 64.00,76.00
             64.00,76.00 65.00,77.00 65.00,77.00
             65.00,77.00 65.00,76.00 65.00,76.00 Z" />
</svg>
